<svg width="35" height="36" viewBox="0 0 35 36" fill="none" xmlns="http://www.w3.org/2000/svg">
<path fill-rule="evenodd" clip-rule="evenodd" d="M17.504 6.7439L15.9356 5.02423C12.254 0.987567 5.50342 2.38057 3.06654 7.45557C1.92248 9.84257 1.66436 13.2889 3.75342 17.6872C5.76592 21.9222 9.95279 26.9949 17.504 32.5202C25.0553 26.9949 29.24 21.9222 31.2547 17.6872C33.3437 13.2866 33.0878 9.84257 31.9415 7.45557C29.5047 2.38057 22.754 0.985234 19.0725 5.0219L17.504 6.7439ZM17.504 35.3319C-16.0369 11.6906 7.17685 -6.76143 17.119 2.9989C17.2503 3.12723 17.3794 3.26023 17.504 3.3979C17.6275 3.26036 17.7559 3.12804 17.889 3.00123C27.829 -6.7661 51.045 11.6882 17.504 35.3319Z" fill="#B02A37"/>
</svg>
