<svg xmlns="http://www.w3.org/2000/svg" width="31" height="29" viewBox="0 0 31 29" fill="none">
<path d="M27.8565 29H20.2666C19.5956 29 18.9521 28.7521 18.4776 28.3108C18.0032 27.8695 17.7366 27.2711 17.7366 26.647V19.588H12.6767V26.647C12.6767 27.2711 12.4101 27.8695 11.9357 28.3108C11.4612 28.7521 10.8177 29 10.1467 29H2.55682C1.88583 29 1.24233 28.7521 0.767866 28.3108C0.293405 27.8695 0.0268555 27.2711 0.0268555 26.647V13.0437C0.026967 12.7172 0.100128 12.3943 0.241685 12.0956C0.383241 11.7968 0.590097 11.5287 0.849095 11.3084L13.4989 0.616915C13.9653 0.22008 14.5745 0 15.2067 0C15.8388 0 16.448 0.22008 16.9144 0.616915L29.5642 11.3084C29.8232 11.5287 30.0301 11.7968 30.1716 12.0956C30.3132 12.3943 30.3864 12.7172 30.3865 13.0437V26.647C30.3865 27.2711 30.1199 27.8695 29.6455 28.3108C29.171 28.7521 28.5275 29 27.8565 29ZM12.6767 17.235H17.7366C18.4076 17.235 19.0511 17.4829 19.5256 17.9242C20.0001 18.3654 20.2666 18.9639 20.2666 19.588V26.647H27.8565V13.0437L15.2067 2.35225L2.55682 13.0437V26.647H10.1467V19.588C10.1467 18.9639 10.4133 18.3654 10.8877 17.9242C11.3622 17.4829 12.0057 17.235 12.6767 17.235Z" fill="#842029"/>
</svg>